<svg xmlns="http://www.w3.org/2000/svg" width="22" height="22" viewBox="0 0 22 22">
  <path id="info-circle-solid" d="M19,8A11,11,0,1,0,30,19,11,11,0,0,0,19,8Zm0,4.879a1.863,1.863,0,1,1-1.863,1.863A1.863,1.863,0,0,1,19,12.879Zm2.484,11.266a.532.532,0,0,1-.532.532h-3.9a.532.532,0,0,1-.532-.532V23.081a.532.532,0,0,1,.532-.532h.532V19.71h-.532a.532.532,0,0,1-.532-.532V18.113a.532.532,0,0,1,.532-.532h2.839a.532.532,0,0,1,.532.532v4.435h.532a.532.532,0,0,1,.532.532Z" transform="translate(-8 -8)"/>
</svg>
