<svg xmlns="http://www.w3.org/2000/svg" width="105.459" height="27" viewBox="0 0 105.459 27">
  <path id="Path_752" data-name="Path 752" d="M0,0H93.759l11.7,13.823L93.759,27H0Z" fill="#4d4d4d"/>
  <text id="menu" transform="translate(21 18)" fill="#fff" font-size="14" font-family="DiavloBold-Regular, Diavlo"><tspan x="0" y="0">MENU</tspan></text>
  <path id="bars-solid" d="M.6,62.692H16.154a.6.6,0,0,0,.6-.6V60.6a.6.6,0,0,0-.6-.6H.6a.6.6,0,0,0-.6.6v1.5A.6.6,0,0,0,.6,62.692Zm0,5.983H16.154a.6.6,0,0,0,.6-.6v-1.5a.6.6,0,0,0-.6-.6H.6a.6.6,0,0,0-.6.6v1.5A.6.6,0,0,0,.6,68.675Zm0,5.983H16.154a.6.6,0,0,0,.6-.6v-1.5a.6.6,0,0,0-.6-.6H.6a.6.6,0,0,0-.6.6v1.5A.6.6,0,0,0,.6,74.658Z" transform="translate(68.684 -53.5)" fill="#fff"/>
</svg>
