<svg xmlns="http://www.w3.org/2000/svg" width="13.896" height="11.286" viewBox="0 0 13.896 11.286">
  <path id="twitter-brands_1_" data-name="twitter-brands (1)" d="M12.468,50.895c.009.123.009.247.009.37a8.048,8.048,0,0,1-8.1,8.1A8.048,8.048,0,0,1,0,58.09a5.892,5.892,0,0,0,.688.035,5.7,5.7,0,0,0,3.536-1.217,2.853,2.853,0,0,1-2.663-1.975,3.592,3.592,0,0,0,.538.044,3.012,3.012,0,0,0,.749-.1,2.848,2.848,0,0,1-2.284-2.8V52.05a2.868,2.868,0,0,0,1.287.361A2.852,2.852,0,0,1,.97,48.6a8.1,8.1,0,0,0,5.872,2.98,3.215,3.215,0,0,1-.071-.652A2.851,2.851,0,0,1,11.7,48.981a5.607,5.607,0,0,0,1.808-.688,2.84,2.84,0,0,1-1.252,1.569,5.709,5.709,0,0,0,1.64-.441A6.122,6.122,0,0,1,12.468,50.895Z" transform="translate(0 -48.082)" fill="#222"/>
</svg>
